<svg width="420" height="140" viewBox="0 0 420 140" fill="none" xmlns="http://www.w3.org/2000/svg">
  <defs>
    <linearGradient id="bg" x1="10" y1="20" x2="390" y2="120" gradientUnits="userSpaceOnUse">
      <stop stop-color="#0F3A73"/>
      <stop offset="1" stop-color="#194E93"/>
    </linearGradient>
    <linearGradient id="gold" x1="235" y1="58" x2="316" y2="93" gradientUnits="userSpaceOnUse">
      <stop stop-color="#FFE7A0"/>
      <stop offset="1" stop-color="#F6B739"/>
    </linearGradient>
    <filter id="shadow" x="0" y="0" width="420" height="140" filterUnits="userSpaceOnUse" color-interpolation-filters="sRGB">
      <feDropShadow dx="0" dy="8" stdDeviation="8" flood-color="#04101E" flood-opacity="0.45"/>
    </filter>
  </defs>
  <g filter="url(#shadow)">
    <path d="M26 24C26 17.3726 31.3726 12 38 12H360L392 28L382 106C381.212 112.09 376.024 116.667 369.884 116.667H54C47.3726 116.667 42 111.294 42 104.667V90L26 82V24Z" fill="url(#bg)"/>
    <path d="M56 112L265 112L237 126H76L56 112Z" fill="#FDBA3A"/>
    <path d="M42 30L62 14" stroke="#8BC7FF" stroke-opacity="0.5" stroke-width="3"/>
    <path d="M370 18L388 30" stroke="#8BC7FF" stroke-opacity="0.35" stroke-width="3"/>
  </g>
  <text x="138" y="48" fill="white" font-family="Arial, Helvetica, sans-serif" font-size="28" font-style="italic" font-weight="700">Life</text>
  <text x="52" y="95" fill="white" font-family="Arial, Helvetica, sans-serif" font-size="62" font-style="italic" font-weight="900">Boss</text>
  <text x="206" y="95" fill="url(#gold)" font-family="Arial, Helvetica, sans-serif" font-size="58" font-style="italic" font-weight="900">Fight</text>
</svg>
